<svg width="166" height="14" viewBox="0 0 166 14" fill="none" xmlns="http://www.w3.org/2000/svg">
<path d="M2.05578e-05 10.0004V0.126058H1.3026V4.43997H7.04515V0.126058H8.36173V10.0004H7.04515V5.54647H1.3026V10.0004H2.05578e-05ZM13.3 10.1265C12.6837 10.1265 12.1422 9.98177 11.6753 9.69231C11.2084 9.40285 10.8443 8.98266 10.5828 8.43175C10.3214 7.88084 10.1906 7.22721 10.1906 6.47088C10.1906 5.71454 10.3214 5.06559 10.5828 4.52401C10.8443 3.9731 11.2084 3.55291 11.6753 3.26345C12.1422 2.97399 12.6837 2.82926 13.3 2.82926C13.9256 2.82926 14.4672 2.988 14.9247 3.30547C15.3916 3.61361 15.6998 4.03846 15.8492 4.58004H15.6811L15.8351 2.95531H17.0677C17.0397 3.23544 17.0117 3.51556 16.9837 3.79569C16.965 4.07581 16.9556 4.35127 16.9556 4.62206V10.0004H15.6811V8.38973H15.8351C15.6857 8.92196 15.3776 9.34682 14.9107 9.66429C14.4532 9.97243 13.9163 10.1265 13.3 10.1265ZM13.5942 9.11805C14.2291 9.11805 14.738 8.89395 15.1208 8.44575C15.5037 7.99755 15.6951 7.33926 15.6951 6.47088C15.6951 5.60249 15.5037 4.94887 15.1208 4.51001C14.738 4.07114 14.2291 3.85171 13.5942 3.85171C12.9592 3.85171 12.4456 4.07114 12.0535 4.51001C11.6706 4.94887 11.4792 5.60249 11.4792 6.47088C11.4792 7.33926 11.6706 7.99755 12.0535 8.44575C12.4363 8.89395 12.9499 9.11805 13.5942 9.11805ZM21.0957 10.0004L18.0843 2.95531H19.457L21.908 9.006H21.5159L24.009 2.95531H25.3116L22.2862 10.0004H21.0957ZM29.6026 10.1265C28.4821 10.1265 27.595 9.80436 26.9414 9.16007C26.2971 8.51578 25.975 7.62872 25.975 6.49889C25.975 5.75189 26.1151 5.1076 26.3952 4.56603C26.6846 4.01512 27.0815 3.59026 27.5857 3.29146C28.0899 2.98333 28.6782 2.82926 29.3505 2.82926C29.9948 2.82926 30.541 2.96932 30.9892 3.24945C31.4374 3.52023 31.7782 3.90774 32.0117 4.41196C32.2451 4.91619 32.3618 5.51378 32.3618 6.20476V6.62494H26.9694V5.86861H31.4934L31.2553 6.05069C31.2553 5.32237 31.0919 4.75745 30.7651 4.35594C30.4476 3.95443 29.9761 3.75367 29.3505 3.75367C28.6689 3.75367 28.1413 3.99178 27.7678 4.46799C27.3943 4.93486 27.2075 5.57448 27.2075 6.38684V6.51289C27.2075 7.37194 27.4176 8.0209 27.8378 8.45976C28.2673 8.89862 28.8603 9.11805 29.6166 9.11805C30.0368 9.11805 30.429 9.05736 30.7931 8.93597C31.1573 8.81458 31.5075 8.61383 31.8436 8.3337L32.2638 9.2161C31.9463 9.50556 31.5495 9.72966 31.0733 9.88839C30.6064 10.0471 30.1162 10.1265 29.6026 10.1265ZM40.4097 10.1265C39.7934 10.1265 39.2519 9.98177 38.785 9.69231C38.3181 9.40285 37.954 8.98266 37.6925 8.43175C37.4311 7.88084 37.3003 7.22721 37.3003 6.47088C37.3003 5.71454 37.4311 5.06559 37.6925 4.52401C37.954 3.9731 38.3181 3.55291 38.785 3.26345C39.2519 2.97399 39.7934 2.82926 40.4097 2.82926C41.0353 2.82926 41.5769 2.988 42.0344 3.30547C42.5013 3.61361 42.8095 4.03846 42.9589 4.58004H42.7908L42.9448 2.95531H44.1774C44.1494 3.23544 44.1214 3.51556 44.0934 3.79569C44.0747 4.07581 44.0653 4.35127 44.0653 4.62206V10.0004H42.7908V8.38973H42.9448C42.7954 8.92196 42.4873 9.34682 42.0204 9.66429C41.5629 9.97243 41.026 10.1265 40.4097 10.1265ZM40.7038 9.11805C41.3388 9.11805 41.8477 8.89395 42.2305 8.44575C42.6134 7.99755 42.8048 7.33926 42.8048 6.47088C42.8048 5.60249 42.6134 4.94887 42.2305 4.51001C41.8477 4.07114 41.3388 3.85171 40.7038 3.85171C40.0689 3.85171 39.5553 4.07114 39.1632 4.51001C38.7803 4.94887 38.5889 5.60249 38.5889 6.47088C38.5889 7.33926 38.7803 7.99755 39.1632 8.44575C39.546 8.89395 40.0596 9.11805 40.7038 9.11805ZM46.2009 10.0004V4.62206C46.2009 4.35127 46.1915 4.07581 46.1728 3.79569C46.1542 3.51556 46.1262 3.23544 46.0888 2.95531H47.3214L47.4614 4.46799H47.2933C47.5081 3.93575 47.8396 3.52957 48.2878 3.24945C48.736 2.96932 49.2589 2.82926 49.8565 2.82926C50.6875 2.82926 51.3131 3.05803 51.7333 3.51556C52.1535 3.96376 52.3636 4.66407 52.3636 5.6165V10.0004H51.089V5.68653C51.089 5.04224 50.963 4.58004 50.7109 4.29991C50.4587 4.01045 50.0666 3.86572 49.5343 3.86572C48.8994 3.86572 48.3952 4.05714 48.0217 4.43997C47.6575 4.82281 47.4754 5.34104 47.4754 5.99466V10.0004H46.2009ZM60.8309 10.1265C60.2146 10.1265 59.6731 9.98177 59.2062 9.69231C58.7393 9.40285 58.3751 8.98266 58.1137 8.43175C57.8522 7.88084 57.7215 7.22721 57.7215 6.47088C57.7215 5.71454 57.8522 5.06559 58.1137 4.52401C58.3751 3.9731 58.7393 3.55291 59.2062 3.26345C59.6731 2.97399 60.2146 2.82926 60.8309 2.82926C61.4565 2.82926 61.9981 2.988 62.4556 3.30547C62.9225 3.61361 63.2306 4.03846 63.38 4.58004H63.212L63.366 2.95531H64.5986C64.5706 3.23544 64.5425 3.51556 64.5145 3.79569C64.4959 4.07581 64.4865 4.35127 64.4865 4.62206V10.0004H63.212V8.38973H63.366C63.2166 8.92196 62.9085 9.34682 62.4416 9.66429C61.9841 9.97243 61.4472 10.1265 60.8309 10.1265ZM61.125 9.11805C61.76 9.11805 62.2689 8.89395 62.6517 8.44575C63.0345 7.99755 63.226 7.33926 63.226 6.47088C63.226 5.60249 63.0345 4.94887 62.6517 4.51001C62.2689 4.07114 61.76 3.85171 61.125 3.85171C60.4901 3.85171 59.9765 4.07114 59.5843 4.51001C59.2015 4.94887 59.0101 5.60249 59.0101 6.47088C59.0101 7.33926 59.2015 7.99755 59.5843 8.44575C59.9672 8.89395 60.4807 9.11805 61.125 9.11805ZM69.6474 10.1265C68.9471 10.1265 68.3401 9.98177 67.8266 9.69231C67.313 9.39351 66.9115 8.96865 66.622 8.41774C66.3419 7.85749 66.2018 7.19453 66.2018 6.42886C66.2018 5.67252 66.3466 5.02824 66.636 4.496C66.9255 3.95442 67.327 3.54358 67.8406 3.26345C68.3541 2.97399 68.9564 2.82926 69.6474 2.82926C70.1049 2.82926 70.5484 2.90863 70.978 3.06736C71.4075 3.21676 71.7576 3.43619 72.0284 3.72566L71.5942 4.62206C71.3235 4.36061 71.0247 4.16919 70.6978 4.0478C70.371 3.91708 70.0489 3.85171 69.7314 3.85171C69.0404 3.85171 68.4989 4.07581 68.1067 4.52401C67.7145 4.96287 67.5184 5.60249 67.5184 6.44286C67.5184 7.29257 67.7145 7.9462 68.1067 8.40373C68.4989 8.86127 69.0404 9.09004 69.7314 9.09004C70.0396 9.09004 70.357 9.02935 70.6838 8.90796C71.0106 8.78657 71.3141 8.59515 71.5942 8.3337L72.0284 9.2161C71.7483 9.51489 71.3888 9.74366 70.95 9.9024C70.5204 10.0518 70.0862 10.1265 69.6474 10.1265ZM76.4727 10.1265C75.7724 10.1265 75.1654 9.98177 74.6519 9.69231C74.1383 9.39351 73.7368 8.96865 73.4473 8.41774C73.1672 7.85749 73.0271 7.19453 73.0271 6.42886C73.0271 5.67252 73.1719 5.02824 73.4613 4.496C73.7508 3.95442 74.1523 3.54358 74.6659 3.26345C75.1794 2.97399 75.7817 2.82926 76.4727 2.82926C76.9302 2.82926 77.3737 2.90863 77.8033 3.06736C78.2328 3.21676 78.5829 3.43619 78.8537 3.72566L78.4195 4.62206C78.1488 4.36061 77.85 4.16919 77.5231 4.0478C77.1963 3.91708 76.8742 3.85171 76.5567 3.85171C75.8657 3.85171 75.3242 4.07581 74.932 4.52401C74.5398 4.96287 74.3437 5.60249 74.3437 6.44286C74.3437 7.29257 74.5398 7.9462 74.932 8.40373C75.3242 8.86127 75.8657 9.09004 76.5567 9.09004C76.8648 9.09004 77.1823 9.02935 77.5091 8.90796C77.8359 8.78657 78.1394 8.59515 78.4195 8.3337L78.8537 9.2161C78.5736 9.51489 78.2141 9.74366 77.7753 9.9024C77.3457 10.0518 76.9115 10.1265 76.4727 10.1265ZM83.2419 10.1265C82.551 10.1265 81.9534 9.98177 81.4492 9.69231C80.9449 9.39351 80.5528 8.97332 80.2726 8.43175C79.9925 7.88084 79.8524 7.22721 79.8524 6.47088C79.8524 5.72388 79.9925 5.07959 80.2726 4.53802C80.5528 3.98711 80.9449 3.56692 81.4492 3.27746C81.9534 2.97866 82.551 2.82926 83.2419 2.82926C83.9329 2.82926 84.5305 2.97866 85.0347 3.27746C85.5483 3.56692 85.9405 3.98711 86.2113 4.53802C86.4914 5.07959 86.6315 5.72388 86.6315 6.47088C86.6315 7.22721 86.4914 7.88084 86.2113 8.43175C85.9405 8.97332 85.5483 9.39351 85.0347 9.69231C84.5305 9.98177 83.9329 10.1265 83.2419 10.1265ZM83.2419 9.11805C83.8769 9.11805 84.3858 8.89395 84.7686 8.44575C85.1515 7.99755 85.3429 7.33926 85.3429 6.47088C85.3429 5.60249 85.1515 4.94887 84.7686 4.51001C84.3858 4.07114 83.8769 3.85171 83.2419 3.85171C82.5977 3.85171 82.0841 4.07114 81.7013 4.51001C81.3278 4.94887 81.141 5.60249 81.141 6.47088C81.141 7.33926 81.3278 7.99755 81.7013 8.44575C82.0841 8.89395 82.5977 9.11805 83.2419 9.11805ZM90.8497 10.1265C90 10.1265 89.3604 9.89773 88.9309 9.4402C88.5107 8.98266 88.3006 8.27768 88.3006 7.32526V2.95531H89.5752V7.29724C89.5752 7.91352 89.7012 8.36638 89.9533 8.65585C90.2054 8.94531 90.5976 9.09004 91.1299 9.09004C91.7088 9.09004 92.1757 8.89862 92.5305 8.51578C92.8946 8.12361 93.0767 7.60538 93.0767 6.96109V2.95531H94.3513V10.0004H93.1187V8.44575H93.3008C93.1047 8.97799 92.7919 9.39351 92.3624 9.69231C91.9329 9.98177 91.4287 10.1265 90.8497 10.1265ZM96.4947 10.0004V4.62206C96.4947 4.35127 96.4853 4.07581 96.4667 3.79569C96.448 3.51556 96.42 3.23544 96.3826 2.95531H97.6152L97.7552 4.46799H97.5872C97.8019 3.93575 98.1334 3.52957 98.5816 3.24945C99.0298 2.96932 99.5527 2.82926 100.15 2.82926C100.981 2.82926 101.607 3.05803 102.027 3.51556C102.447 3.96376 102.657 4.66407 102.657 5.6165V10.0004H101.383V5.68653C101.383 5.04224 101.257 4.58004 101.005 4.29991C100.753 4.01045 100.36 3.86572 99.8282 3.86572C99.1932 3.86572 98.689 4.05714 98.3155 4.43997C97.9513 4.82281 97.7692 5.34104 97.7692 5.99466V10.0004H96.4947ZM107.376 10.1265C106.638 10.1265 106.078 9.92574 105.695 9.52423C105.321 9.11338 105.135 8.49711 105.135 7.67541V3.93575H103.762V2.95531H105.135V1.06447L106.409 0.714319V2.95531H108.398V3.93575H106.409V7.56336C106.409 8.10494 106.503 8.49244 106.689 8.72588C106.885 8.94998 107.166 9.06203 107.53 9.06203C107.716 9.06203 107.875 9.04802 108.006 9.02001C108.146 8.98266 108.272 8.94064 108.384 8.89395V9.94442C108.244 10.0004 108.081 10.0425 107.894 10.0705C107.716 10.1078 107.544 10.1265 107.376 10.1265ZM111.121 7.33926V6.89106C111.121 6.43353 111.209 6.004 111.387 5.60249C111.564 5.19164 111.882 4.7341 112.339 4.22988C112.694 3.84704 112.941 3.51089 113.081 3.22143C113.221 2.92263 113.292 2.62383 113.292 2.32503C113.292 1.9422 113.151 1.6434 112.871 1.42864C112.591 1.21387 112.208 1.10649 111.723 1.10649C111.359 1.10649 111.004 1.15785 110.658 1.26056C110.322 1.35394 110 1.48933 109.692 1.66674V0.504226C110 0.345488 110.346 0.224101 110.728 0.140064C111.111 0.0466889 111.489 1.55041e-06 111.863 1.55041e-06C112.404 1.55041e-06 112.881 0.0840389 113.292 0.252114C113.702 0.420188 114.02 0.667632 114.244 0.994444C114.477 1.31192 114.594 1.71343 114.594 2.19898C114.594 2.49778 114.543 2.78724 114.44 3.06736C114.347 3.34749 114.202 3.62294 114.006 3.89373C113.819 4.16452 113.572 4.45398 113.264 4.76212C112.806 5.21965 112.484 5.6165 112.297 5.95265C112.12 6.2888 112.008 6.63428 111.961 6.98911L111.919 7.33926H111.121ZM110.742 10.0004V8.44575H112.297V10.0004H110.742Z" fill="black"/>
<path d="M126.885 10.1265C126.091 10.1265 125.377 10.0238 124.742 9.81836C124.107 9.61294 123.556 9.32348 123.089 8.94998L123.537 7.91352C123.864 8.15629 124.196 8.36172 124.532 8.52979C124.868 8.68853 125.227 8.80992 125.61 8.89395C126.002 8.96865 126.427 9.006 126.885 9.006C127.697 9.006 128.295 8.86127 128.678 8.57181C129.07 8.27301 129.266 7.88084 129.266 7.39529C129.266 6.9751 129.13 6.65296 128.86 6.42886C128.589 6.20476 128.117 6.02735 127.445 5.89662L125.946 5.58848C125.041 5.40173 124.364 5.09827 123.915 4.67808C123.477 4.24856 123.257 3.66963 123.257 2.94131C123.257 2.35305 123.411 1.83949 123.719 1.40062C124.037 0.952425 124.471 0.606938 125.022 0.364164C125.582 0.121389 126.236 1.55041e-06 126.983 1.55041e-06C127.674 1.55041e-06 128.313 0.102714 128.902 0.308139C129.49 0.513563 129.985 0.817031 130.386 1.21854L129.938 2.21298C129.518 1.83015 129.065 1.55469 128.58 1.38662C128.103 1.20921 127.562 1.1205 126.955 1.1205C126.217 1.1205 125.634 1.27924 125.204 1.59671C124.775 1.91419 124.56 2.34371 124.56 2.88528C124.56 3.31481 124.695 3.65563 124.966 3.90774C125.237 4.15051 125.685 4.33726 126.311 4.46799L127.809 4.76212C128.762 4.94887 129.457 5.243 129.896 5.64451C130.344 6.04602 130.568 6.6016 130.568 7.31125C130.568 7.8715 130.419 8.36638 130.12 8.79591C129.821 9.2161 129.397 9.54291 128.846 9.77634C128.295 10.0098 127.641 10.1265 126.885 10.1265ZM132.276 10.0004V2.95531H133.551V10.0004H132.276ZM132.164 1.41463V0.0420205H133.677V1.41463H132.164ZM138.819 13.1378C138.203 13.1378 137.638 13.0631 137.125 12.9137C136.611 12.7643 136.149 12.5356 135.738 12.2274L136.074 11.289C136.364 11.4851 136.648 11.6438 136.929 11.7652C137.209 11.8866 137.498 11.9753 137.797 12.0313C138.105 12.0874 138.423 12.1154 138.749 12.1154C139.44 12.1154 139.959 11.938 140.304 11.5831C140.65 11.2283 140.822 10.7241 140.822 10.0705V8.0956H140.962C140.813 8.62783 140.505 9.05269 140.038 9.37016C139.58 9.6783 139.039 9.83237 138.413 9.83237C137.778 9.83237 137.223 9.69231 136.746 9.41218C136.28 9.12272 135.915 8.71654 135.654 8.19364C135.393 7.66141 135.262 7.04046 135.262 6.33081C135.262 5.61183 135.393 4.99089 135.654 4.46799C135.915 3.94509 136.28 3.54358 136.746 3.26345C137.223 2.97399 137.778 2.82926 138.413 2.82926C139.039 2.82926 139.58 2.98333 140.038 3.29146C140.495 3.5996 140.799 4.02446 140.948 4.56603L140.822 4.43997L140.948 2.95531H142.181C142.153 3.23544 142.125 3.51556 142.097 3.79569C142.078 4.07581 142.069 4.35127 142.069 4.62206V9.91641C142.069 10.9622 141.793 11.7606 141.242 12.3115C140.701 12.8624 139.893 13.1378 138.819 13.1378ZM138.693 8.82392C139.338 8.82392 139.851 8.60449 140.234 8.16563C140.617 7.72677 140.808 7.11516 140.808 6.33081C140.808 5.53713 140.617 4.92552 140.234 4.496C139.851 4.06647 139.338 3.85171 138.693 3.85171C138.04 3.85171 137.517 4.06647 137.125 4.496C136.742 4.92552 136.55 5.53713 136.55 6.33081C136.55 7.11516 136.742 7.72677 137.125 8.16563C137.517 8.60449 138.04 8.82392 138.693 8.82392ZM144.203 10.0004V4.62206C144.203 4.35127 144.194 4.07581 144.175 3.79569C144.157 3.51556 144.129 3.23544 144.091 2.95531H145.324L145.464 4.46799H145.296C145.511 3.93575 145.842 3.52957 146.29 3.24945C146.738 2.96932 147.261 2.82926 147.859 2.82926C148.69 2.82926 149.316 3.05803 149.736 3.51556C150.156 3.96376 150.366 4.66407 150.366 5.6165V10.0004H149.092V5.68653C149.092 5.04224 148.965 4.58004 148.713 4.29991C148.461 4.01045 148.069 3.86572 147.537 3.86572C146.902 3.86572 146.398 4.05714 146.024 4.43997C145.66 4.82281 145.478 5.34104 145.478 5.99466V10.0004H144.203ZM156.284 10.0004V0.126058H157.587V10.0004H156.284ZM159.837 10.0004V4.62206C159.837 4.35127 159.828 4.07581 159.809 3.79569C159.791 3.51556 159.763 3.23544 159.725 2.95531H160.958L161.098 4.46799H160.93C161.145 3.93575 161.476 3.52957 161.924 3.24945C162.372 2.96932 162.895 2.82926 163.493 2.82926C164.324 2.82926 164.95 3.05803 165.37 3.51556C165.79 3.96376 166 4.66407 166 5.6165V10.0004H164.725V5.68653C164.725 5.04224 164.599 4.58004 164.347 4.29991C164.095 4.01045 163.703 3.86572 163.171 3.86572C162.536 3.86572 162.032 4.05714 161.658 4.43997C161.294 4.82281 161.112 5.34104 161.112 5.99466V10.0004H159.837Z" fill="#0F3DDE"/>
</svg>
