<svg width="24" height="24" viewBox="0 0 24 24" fill="none" xmlns="http://www.w3.org/2000/svg">
<g clip-path="url(#clip0_354_594)">
<path d="M17.4863 5.78118e-07C16.125 0.0918755 14.6682 0.901875 13.7663 1.995C12.9769 2.95688 12.315 4.36875 12.5663 5.835C12.3413 5.76563 12.1369 5.75813 11.8913 5.67C11.2219 5.43188 10.4569 5.175 9.50628 5.175C7.61816 5.175 5.68503 6.29813 4.46628 8.175C2.69253 10.9013 3.04878 15.6994 5.74128 19.8C6.21566 20.52 6.76878 21.3056 7.45128 21.93C8.13378 22.5544 8.95878 23.0306 9.92628 23.04C10.7532 23.0494 11.3288 22.7738 11.8463 22.545C12.3638 22.3163 12.8457 22.1138 13.7513 22.11C13.7569 22.11 13.7607 22.11 13.7663 22.11C14.6682 22.1025 15.135 22.3013 15.6413 22.53C16.1475 22.7588 16.7175 23.0475 17.5463 23.04C18.5325 23.0325 19.3707 22.4925 20.0663 21.825C20.7619 21.1575 21.3338 20.3381 21.8063 19.62C22.4832 18.5888 22.755 18.0263 23.2763 16.875C23.3307 16.755 23.3325 16.6163 23.28 16.4944C23.2294 16.3725 23.13 16.2769 23.0063 16.23C21.3 15.585 20.3269 14.0756 20.1863 12.48C20.0457 10.8844 20.7207 9.24188 22.4213 8.31C22.5469 8.2425 22.635 8.12438 22.665 7.98563C22.6932 7.84688 22.6594 7.70063 22.5713 7.59C21.3507 6.07313 19.6332 5.175 17.9513 5.175C16.8788 5.175 16.0913 5.42813 15.4463 5.67C15.3394 5.71125 15.2607 5.7075 15.1613 5.745C15.8157 5.4 16.3932 4.92188 16.8263 4.365C17.6138 3.35438 18.2213 1.91625 17.9963 0.405001C17.9588 0.157501 17.7357 -0.0187494 17.4863 5.78118e-07ZM16.9763 1.14C16.9444 2.10938 16.6125 3.05813 16.0613 3.765C15.4838 4.5075 14.5125 5.02125 13.5713 5.175C13.5882 4.24313 13.9557 3.2775 14.5163 2.595C15.105 1.8825 16.08 1.36875 16.9763 1.14ZM9.50628 6.135C9.92628 6.135 10.9013 6.33563 11.5613 6.57C12.2213 6.80438 12.9169 7.08 13.7363 7.08C14.5369 7.08 15.1707 6.8025 15.7913 6.57C16.4119 6.3375 17.0307 6.135 17.9513 6.135C19.1532 6.135 20.4525 6.75938 21.4763 7.845C19.8375 9.00188 19.0707 10.8056 19.2263 12.555C19.3819 14.3231 20.4469 16.0013 22.1963 16.875C22.1938 16.8805 22.1913 16.8859 22.1888 16.8913C21.8142 17.7072 21.5645 18.2512 21.0113 19.095C20.5519 19.7944 20.0063 20.5594 19.4063 21.135C18.8063 21.7106 18.1707 22.0744 17.5313 22.08C16.9144 22.0856 16.5638 21.9019 16.0313 21.66C15.4988 21.4181 14.8107 21.1406 13.7513 21.15C12.6938 21.1556 11.9963 21.4219 11.4563 21.66C10.9163 21.8981 10.5619 22.0856 9.94128 22.08C9.28503 22.0744 8.67566 21.7556 8.09628 21.225C7.51691 20.6944 6.99378 19.9706 6.53628 19.275C4.01628 15.435 3.81378 10.9238 5.26128 8.7C6.32253 7.06688 9.08628 6.135 9.50628 6.135Z" fill="black"/>
<path d="M9.50628 6.135C9.92628 6.135 10.9013 6.33563 11.5613 6.57C12.2213 6.80438 12.9169 7.08 13.7363 7.08C14.5369 7.08 15.1707 6.8025 15.7913 6.57C16.4119 6.3375 17.0307 6.135 17.9513 6.135C19.1532 6.135 20.4525 6.75938 21.4763 7.845C19.8375 9.00188 19.0707 10.8056 19.2263 12.555C19.3819 14.3231 20.4469 16.0013 22.1963 16.875L22.1888 16.8913C21.8142 17.7072 21.5645 18.2512 21.0113 19.095C20.5519 19.7944 20.0063 20.5594 19.4063 21.135C18.8063 21.7106 18.1707 22.0744 17.5313 22.08C16.9144 22.0856 16.5638 21.9019 16.0313 21.66C15.4988 21.4181 14.8107 21.1406 13.7513 21.15C12.6938 21.1556 11.9963 21.4219 11.4563 21.66C10.9163 21.8981 10.5619 22.0856 9.94128 22.08C9.28503 22.0744 8.67566 21.7556 8.09628 21.225C7.51691 20.6944 6.99378 19.9706 6.53628 19.275C4.01628 15.435 3.81378 10.9238 5.26128 8.7C6.32253 7.06688 9.08628 6.135 9.50628 6.135Z" fill="black"/>
<path d="M16.9763 1.14C16.9444 2.10938 16.6125 3.05813 16.0613 3.765C15.4838 4.5075 14.5125 5.02125 13.5713 5.175C13.5882 4.24313 13.9557 3.2775 14.5163 2.595C15.105 1.8825 16.08 1.36875 16.9763 1.14Z" fill="black"/>
</g>
<defs>
<clipPath id="clip0_354_594">
<rect width="24" height="24" fill="white"/>
</clipPath>
</defs>
</svg>
